<svg width="581" height="414" fill="none" xmlns="http://www.w3.org/2000/svg"><path d="M362.333 346.631c.213-.048.418-.135.605-.261l35.884-24.17a1.784 1.784 0 0 0-.318-3.129l-35.151-14.396a1.793 1.793 0 0 0-1.66.159 1.791 1.791 0 0 0-.807 1.459l-.734 38.565a1.786 1.786 0 0 0 2.181 1.773Zm31.723-25.525-30.263 20.384.618-32.523 29.645 12.139Z" fill="url('#paint0_linear')"/><path d="M379.487 319.936a1.973 1.973 0 0 0-2.496-1.249c-4.136 1.375-5.657 4.102-6.879 6.294-1.114 1.999-1.997 3.579-4.672 4.468-2.676.888-4.329.15-6.418-.784-2.292-1.024-5.146-2.3-9.283-.925-4.137 1.375-5.658 4.102-6.88 6.294-1.114 1.999-1.993 3.579-4.672 4.468-2.675.888-4.328.15-6.418-.784-2.291-1.024-5.146-2.3-9.28-.925-4.133 1.374-5.657 4.102-6.879 6.294-1.114 1.999-1.994 3.578-4.672 4.467a1.971 1.971 0 1 0 1.243 3.741c4.136-1.374 5.657-4.102 6.879-6.294 1.114-1.998 1.994-3.578 4.672-4.467 2.676-.888 4.329-.15 6.418.783 2.292 1.025 5.146 2.3 9.28.926 4.137-1.375 5.658-4.102 6.88-6.294 1.114-1.999 1.993-3.579 4.672-4.467 2.675-.889 4.328-.151 6.418.783 2.291 1.024 5.146 2.3 9.283.925 4.136-1.375 5.657-4.102 6.879-6.294 1.114-1.999 1.996-3.579 4.672-4.468a1.97 1.97 0 0 0 1.253-2.492Z" fill="url('#paint1_linear')"/><path d="M484.867 138.221c-.123 1.65-2.058 2.633-3.408 3.132-2.687.996-5.529.939-8.349.813-4.381-.199-8.734-.755-13.096-1.206-4.168-.429-8.579-1.086-12.711-.094-3.074.74-5.854 2.315-8.792 3.437-3.079 1.177-6.339 1.868-9.594 2.344-14.404 2.105-29.196.151-43.526-1.631-.965-.12-.838-1.571.079-1.548a1.71 1.71 0 0 1 .038-.698c.059-.219.145-.431.244-.639-.234-.299-.263-.726.151-.994 3.05-1.981 6.664-1.784 10.126-1.294 4.343.614 8.533 1.051 12.937.927 4.934-.139 9.829-.734 14.744-1.112 4.327-.336 8.564-.183 12.573-2.137 1.076-.525 2.041-1.106 2.243-2.355.094-.589.032-1.203.026-1.795-.009-1.268.369-1.647 1.465-2.354 2.461-1.584 5.431-1.762 8.252-1.282 3.161.538 6.136 1.766 9.155 2.789 4.152 1.408 8.387 1.526 12.729 1.515 3.795-.009 7.765-.082 11.424 1.065 1.395.438 3.423 1.342 3.29 3.117Z" fill="url('#paint2_linear')"/><path d="M339.763 101.173c2.948-1.93 6.954-2.292 10.336-2.944 6.162-1.192 12.219-4.762 18.653-3.601.984.176.504 1.657-.473 1.482-.037-.007-.07-.01-.106-.017a.772.772 0 0 1-.398.238c-5.825 1.488-8.699 7.219-13.746 9.983-1.777.973-3.717 1.143-5.713 1.198-2.299.062-4.755-.027-6.972-.696-2.77-.835-4.473-3.749-1.581-5.643Z" fill="url('#paint3_linear')"/><path d="M157.533 188.434c-11.974 7.955-23.876 16.969-30.8 29.554-1.356 2.464-2.533 5.241-2.041 8.006 1.153 6.469 9.829 8.002 16.32 6.911 3.656-.615 8.128-2.749 7.701-6.424-.364-3.166-4.211-4.695-5.553-7.585-1.599-3.446.83-7.367 3.356-10.211 18.822-21.203 47.886-29.702 75.596-35.793 5.659-1.244 12.719-4.101 12.465-9.877-.168-3.81-3.923-6.662-7.704-7.199-3.781-.537-7.57.651-11.225 1.755-9.645 2.91-19.651 5.341-29.694 4.572-8.661-.664-15.906-1.778-18.017 7.506-2.123 9.322-1.11 12.612-10.404 18.785Z" fill="url('#paint4_linear')"/><path d="M101.527 170.122c-24.814 12.627-47.748 30.195-62.637 53.693-3.394 5.356-6.39 11.101-7.513 17.338-1.12 6.238-.17 13.066 3.706 18.078 5.195 6.718 14.347 8.897 22.825 9.55 3.324.256 6.782.329 9.862-.95 3.08-1.277 5.688-4.237 5.565-7.563-.21-5.625-6.957-8.059-11.622-11.221-10.65-7.212-12.25-23.031-7.06-34.795 5.193-11.764 15.434-20.416 25.338-28.633 5.344-4.433 11.118-9.056 18.02-9.819 4.123-.455 8.285.531 12.427.292 9.534-.544 17.364-7.277 25.284-12.613a100.59 100.59 0 0 1 42.202-16.155c5.797-.807 12.514-1.688 17.029-4.858 2.25-1.577.837-5.115-1.89-4.779-13.376 1.652-26.754 7.737-39.306 11.76-17.839 5.726-35.51 12.168-52.23 20.675Z" fill="url('#paint5_linear')"/><path d="M126.052 127.728a1.753 1.753 0 0 0-2.34-.827c-3.497 1.664-4.543 4.237-5.38 6.302-.764 1.885-1.369 3.374-3.632 4.451-2.263 1.077-3.804.605-5.75.008-2.135-.652-4.792-1.467-8.29.197-3.497 1.664-4.54 4.237-5.38 6.302-.764 1.885-1.37 3.374-3.632 4.452-2.263 1.077-3.803.604-5.75.008-2.135-.653-4.792-1.467-8.29.194-3.498 1.664-4.54 4.237-5.38 6.302-.764 1.885-1.37 3.374-3.633 4.451a1.753 1.753 0 1 0 1.509 3.164c3.498-1.664 4.54-4.237 5.38-6.302.764-1.885 1.37-3.374 3.633-4.451 2.263-1.077 3.803-.605 5.75-.008 2.134.652 4.792 1.466 8.29-.195 3.497-1.664 4.54-4.237 5.38-6.302.764-1.885 1.37-3.373 3.632-4.451 2.263-1.077 3.803-.604 5.75-.008 2.135.653 4.792 1.467 8.29-.197 3.497-1.664 4.543-4.238 5.38-6.302.764-1.885 1.368-3.377 3.632-4.451a1.754 1.754 0 0 0 .831-2.337Z" fill="#FBC49D"/><path d="M487.139 203.823a6.998 6.998 0 0 0 4.835-3.896 6.945 6.945 0 0 0 .222-5.36c-1.333-3.628-5.376-5.494-9.009-4.16-3.636 1.335-5.509 5.369-4.178 8.997 1.227 3.335 4.744 5.183 8.13 4.419Zm3.033-8.515a4.83 4.83 0 0 1-.153 3.716 4.82 4.82 0 0 1-2.742 2.52 4.87 4.87 0 0 1-6.245-2.884 4.84 4.84 0 0 1 .153-3.716 4.827 4.827 0 0 1 2.742-2.52 4.867 4.867 0 0 1 6.245 2.884Z" fill="#86E29B"/><path d="M82.617 115.181a8.847 8.847 0 0 0 5.74-4.22 8.784 8.784 0 0 0 .877-6.714 8.784 8.784 0 0 0-4.135-5.364 8.812 8.812 0 0 0-6.726-.87 8.818 8.818 0 0 0-5.377 4.132c-2.438 4.231-.977 9.647 3.26 12.08a8.835 8.835 0 0 0 6.361.956Zm-3.337-14.852a6.366 6.366 0 0 1 4.588.693 6.333 6.333 0 0 1 2.983 3.87 6.327 6.327 0 0 1-.634 4.842 6.408 6.408 0 0 1-8.73 2.352 6.377 6.377 0 0 1-2.349-8.712 6.36 6.36 0 0 1 4.142-3.045Z" fill="#FFB0EB"/><path d="M55.77 287.772a2.653 2.653 0 0 1-3.172-2.001 2.653 2.653 0 0 1 2.007-3.169 2.653 2.653 0 0 1 3.173 2.001 2.653 2.653 0 0 1-2.007 3.169Z" fill="url('#paint6_linear')"/><path d="M471.004 228.8a2.653 2.653 0 0 1-3.173-2.001 2.652 2.652 0 0 1 2.007-3.168 2.652 2.652 0 0 1 3.173 2 2.653 2.653 0 0 1-2.007 3.169Z" fill="url('#paint7_linear')"/><path d="M410.995 304.387a2.654 2.654 0 0 1-3.173-2.001 2.653 2.653 0 0 1 2.007-3.169 2.653 2.653 0 0 1 3.173 2.001 2.653 2.653 0 0 1-2.007 3.169Z" fill="url('#paint8_linear')"/><path d="M149.751 337.15a2.653 2.653 0 0 1-3.173-2.001 2.652 2.652 0 0 1 2.007-3.168 2.652 2.652 0 0 1 3.173 2 2.653 2.653 0 0 1-2.007 3.169Z" fill="url('#paint9_linear')"/><path d="M160.33 108.684a2.652 2.652 0 0 1-3.173-2 2.653 2.653 0 0 1 2.007-3.169 2.653 2.653 0 0 1 3.173 2.001 2.652 2.652 0 0 1-2.007 3.168Z" fill="url('#paint10_linear')"/><path d="M458.532 196.586a2.652 2.652 0 0 1-3.172-2.001 2.65 2.65 0 0 1 2.007-3.168 2.652 2.652 0 0 1 3.173 2 2.653 2.653 0 0 1-2.008 3.169Z" fill="url('#paint11_linear')"/><path d="M471.778 305.08a2.651 2.651 0 0 1-3.172-2 2.652 2.652 0 0 1 2.007-3.169 2.653 2.653 0 0 1 3.173 2.001 2.652 2.652 0 0 1-2.008 3.168Z" fill="url('#paint12_linear')"/><path d="M457.013 50.605a4.305 4.305 0 0 1-5.15-3.248 4.304 4.304 0 0 1 3.258-5.143 4.304 4.304 0 0 1 5.149 3.248 4.304 4.304 0 0 1-3.257 5.142Z" fill="url('#paint13_linear')"/><path d="M505.995 97.523a2.036 2.036 0 0 0 1.549-2.382l-4.38-21.828a2.033 2.033 0 0 0-3.468-.998l-17.23 18.068a2.032 2.032 0 0 0 1.123 3.402l21.61 3.76c.266.045.538.036.796-.022Zm-6.055-19.578 3.029 15.087-14.937-2.599 11.908-12.488Z" fill="#FFB0EB"/><path d="M92.403 352.108c.228-.051.436-.174.587-.356l14.362-17.051a1.076 1.076 0 0 0-.73-1.764l-24.885-2.156a1.084 1.084 0 0 0-.995.484 1.07 1.07 0 0 0-.043 1.103l10.523 19.204c.169.311.484.519.838.552a.985.985 0 0 0 .343-.016Zm11.967-17.206-12.013 14.262-8.803-16.065 20.816 1.803Z" fill="#86E29B"/><path d="M493.445 135.26c-5.194-5.822 25.139 8.013 24.134 15.885-1.008 7.872-15.98 9.486-12.643 2.598 2.824-5.825-3.197-9.187-11.491-18.483Z" fill="#FBC49D"/><path d="m181.944 127.199.089-.02c3.475-.833 5.626-4.331 4.795-7.799a6.42 6.42 0 0 0-2.911-4.005 6.451 6.451 0 0 0-4.898-.774 6.446 6.446 0 0 0-4.015 2.909 6.417 6.417 0 0 0-.78 4.889 6.422 6.422 0 0 0 2.911 4.006 6.452 6.452 0 0 0 4.809.794Zm-2.478-11.018a4.813 4.813 0 0 1 3.589.592 4.787 4.787 0 0 1 2.172 2.988c.621 2.588-.985 5.198-3.578 5.818a4.792 4.792 0 0 1-3.653-.578 4.787 4.787 0 0 1-2.172-2.988 4.785 4.785 0 0 1 .582-3.647 4.817 4.817 0 0 1 2.996-2.171l.064-.014Z" fill="#75C4FD"/><path d="M381.467 92.54c1.412-.377 2.922-.389 4.374-.385a75.15 75.15 0 0 0 5.423-.178 224.19 224.19 0 0 1 12.524-.504c4.362-.056 8.758-.061 13.103.355 3.889.37 7.735 1.065 11.575 1.763 9.167 1.667 18.453 2.449 27.607 4.2 7.705 1.476 15.313 3.389 22.853 5.542 2.871.688 5.704 1.738 6.819 2.173.384.149.639.545.559.953a.431.431 0 0 1-.095.213c-1.413 1.526-4.053.763-5.751.25-1.11-.337-4.414-.892-5.04-.861-1.144.057-2.186.126-1.729 1.663.563 1.889 3.529 3.36 5.232 4.075 2.826 1.189 6.23 1.602 8.909 3.173 2.768.656 5.794 1.439 7.869 2.163 7.549 2.634 14.654 6.266 21.398 10.538 3.188 2.017 6.319 4.179 9.064 6.779 2.143 2.032 4.487 4.493 5.495 7.336.634 1.791-.091 3.342-2.178 2.759-3.248-.901-4.659-3.695-6.444-6.247-4.078-5.835-10.535-9.916-16.951-12.747-3.213-1.416-6.546-2.551-9.931-3.477-3.637-.995-7.427-1.984-11.216-1.99-4.014-.008-7.947.887-11.926 1.284-3.67.366-7.227.034-10.795-.886-3.579-.923-7.021-2.282-10.499-3.518-2.518-.895-5.378-1.457-7.678-2.869-1.979-1.218-2.236-3.067-.094-4.304 3.499-2.021 7.145-.634 10.753.222l.059.013c3.012.711 6.16.635 9.161-.129.747-.189 1.352-.337 1.636-.445 1.21-.464 2.528-1.777 1.924-3.176-.668-1.541-2.815-2.392-4.254-2.957-2.35-.924-4.843-1.526-7.331-1.95a64.844 64.844 0 0 0-1.969-.318 90.418 90.418 0 0 0-4.849-.081c-4.083.036-8.142.504-12.221.129-3.598-.331-7.132-1.107-10.639-1.954-3.868-.934-7.675-1.817-11.667-2.001a55.283 55.283 0 0 0-12.106.807c-3.721.66-7.366 1.734-11.139 2.087-2.876.271-5.654-.097-8.455-.719-1.617-.36-4.209-.886-4.862-2.658-.756-2.057 1.838-3.685 3.482-4.123Z" fill="url('#paint14_linear')"/><path d="M418.036 258.941c-9.826-9.741-40.281-26.396-68.818-19.961l43.712-38.602 25.106 58.563ZM377.132 75c11.716-5.047 40.913-3.046 54.368 23.388 13.455 26.433 7.542 41.599 27.681 51.127 20.139 9.527 26.279 35.39 26.279 35.39s-4.678 7.269-18.167 11.985c-13.488 4.717-23.772-2.316-39.137 7.622-15.365 9.937-83.319-29.621-83.319-29.621s8.907-13.405 12.668-33.582c-2.629-16.351-9.215-35.26-3.681-47.947 5.528-12.69 12.157-18.956 23.308-18.362Z" fill="#333"/><path d="m352.893 156.339 33.322 2.798a24.093 24.093 0 0 1 9.926 3.083l2.535 1.447a120.27 120.27 0 0 1 2.202 1.646l-2.903 21.281a156.84 156.84 0 0 0-3.885-3.349c.942 54.358-35.069 77.846-35.069 77.846l-56.69-46.908c34.005-6.618 50.562-57.844 50.562-57.844Z" fill="#F66A0A"/><path d="M370.795 205.622c-8.154-5.626-30.225-8.471-41.052 4.907 0 0 8.51-2.472 15.332.151 6.01 5.874 14.746 9.517 14.746 9.517l10.974-14.575Z" fill="#EDA5AC"/><path d="M296.483 202.076c.157-3.156 2.168-6.462 5.973-9.824 13.587-12.005 42.195-18.162 47.203-17.803-.006-.001-.127-.009-.328-.048l3.562-18.062c-7.419-1.395-23.494 3.289-26.608 4.212-17.37 5.144-27.817 11.573-33.522 16.061-9.175 7.216-14.056 15.482-14.511 24.567l18.231.897ZM152.838 266.948l-22.311 18.678-28.354 5.175 34.072 20.248 29.642-23.745-13.049-20.356ZM180.327 341.945l-6.294 15.665-14.359 16.995 43.02-8.354.477-17.023-22.844-7.283Z" fill="#FFD33D"/><path d="M369.229 153.191c-13.897-3.726-22.13-17.995-18.385-31.872l6.96-25.787c3.745-13.875 18.047-22.105 31.948-18.38 13.897 3.727 22.129 17.995 18.385 31.873l-6.96 25.786c-3.746 13.875-18.048 22.105-31.948 18.38Z" fill="#EDA5AC"/><path d="M372.424 172.785c-4.44-.976-7.241-5.361-6.258-9.79l6.078-27.411 16.072 3.535-6.078 27.411c-.983 4.429-5.375 7.231-9.814 6.255Z" fill="#EDA5AC"/><path d="M371.748 87.77c.007 7.32 4.403 15.533 15.93 22.701 11.527 7.169 15.966 15.706 14.288 21.921l9.406-30.055-2.519-12.36-11.234-14.052-19.527-.133-13.902 4.432-10.017 19.689.009 9.033c.002-.004 8.485-17.666 17.566-21.176Z" fill="#333"/><path d="M371.936 140.963c3.413-.77 6.868-2.142 9.323-3.87l-.818-1.159c-4.431 3.121-12.635 5.067-16.884 4.004l-.348 1.376c2.272.566 5.479.381 8.727-.351Z" fill="#fff"/><path d="M232.007 246.997c-10.563 2.381-21.052-4.233-23.429-14.773-2.377-10.541 4.259-21.017 14.822-23.398 10.562-2.382 21.051 4.232 23.428 14.773 2.377 10.54-4.259 21.016-14.821 23.398Z" fill="#606060"/><path d="m143.396 274.762 73.04-62.845 22.491 31.978-78.894 54.52-16.637-23.653Z" fill="#606060"/><path d="m316.282 269.682-93.139-22.789 6.901-38.414 82.103 11.025 4.135 50.178Z" fill="#606060"/><path d="M227.737 228.061a.154.154 0 1 1-.066-.3.154.154 0 0 1 .066.3Z" fill="#606060"/><path d="M234.831 278.955c-10.563 2.382-21.052-4.233-23.429-14.773-2.377-10.541 4.259-21.017 14.821-23.398 10.563-2.382 21.052 4.232 23.429 14.773 2.377 10.54-4.259 21.016-14.821 23.398Z" fill="#333"/><path d="m180.327 341.945 32.636-90.741 35.084 17.341-38.383 82.921-29.337-9.521Z" fill="#333"/><path d="m326.271 271.18-84.993 2.215-4.057-31.924 89.05 29.709Z" fill="#333"/><path d="M316.282 269.681c17.773 6.156 42.74-8.587 42.74-8.587s-16.413-37.534-46.875-41.59c-30.462-4.056-63.8 25.678-63.8 25.678l67.935 24.499Z" fill="#606060"/><path d="m229.121 208.39 114.82 15.536.649-4.709-114.805-15.646-.664 4.819Z" fill="#333"/><path d="m273.909 158.682 6.003.819a6.27 6.27 0 0 1 4.898 3.69l22.343 50.925-4.029-.548-29.215-54.886Z" fill="#606060"/><path d="m209.123 149.853 66.268 9.033a6.878 6.878 0 0 1 5.365 4.033l22.372 50.651 4.028.549-77.368-10.546-22.503-51.288c-.551-1.251.485-2.616 1.838-2.432Z" fill="#333"/><path d="M303.688 206.22c4.802.334 11.567 3.743 14.205 9.354l-10.74-1.458-3.465-7.896Z" fill="#EDA5AC"/><path d="M367.267 225.267c6.753 4.453 7.184 4.49 15.326 8.06l-1.308 2.353-14.018-10.413Z" fill="#F66A0A"/><path d="M401.348 137.172a5.342 5.342 0 0 1-2.277-7.213l1.909-3.658a5.368 5.368 0 0 1 7.228-2.279l1.208.626c3.235 1.682 3.877 6.03 1.263 8.573l-3.116 3.032a5.361 5.361 0 0 1-6.215.919Z" fill="#EDA5AC"/><path d="m302.541 218.384 36.683 4.91a4.775 4.775 0 0 0 5.366-4.077l-41.463-5.652-.586 4.819Z" fill="#333"/><path d="m329.743 210.529-2.161 3.003a1.372 1.372 0 0 0 .728 2.118c.44.128.916.029 1.269-.263l7.07-5.889-3.983-.515-2.923 1.546Z" fill="#EDA5AC"/><path d="m336.649 209.498-.617 1.035a3.016 3.016 0 0 0 1.296 4.276l1.55.735a12.414 12.414 0 0 0 8.03.902l4.623-1.03-7.072-7.865-8.285.367.475 1.58Z" fill="#EDA5AC"/><path d="M344.835 174.891c1.202-2.149 2.841-5.747 2.841-5.747s-6.849 5.654-9.774 7.168" fill="#F66A0A"/><path d="M370.795 205.622c14.746 11.058 35.923 18.711 46.014 16.747.234-.047.464-.096.691-.153 2.439-.617 2.897-1.61 3.116-2.087 1.896-4.115-3.666-13.12-9.005-19.581-4.127-4.993-9.02-9.839-13.636-13.951l2.903-21.281c7.325 5.607 17.094 14.285 24.819 23.628 12.515 15.143 16.385 28.194 11.503 38.789-2.831 6.143-8.096 10.343-15.231 12.147-.532.134-1.07.256-1.614.361-10.175 1.98-21.984-1.001-30.292-3.946-10.582-3.756-21.605-9.622-30.242-16.095l10.974-14.578Z" fill="#FFD33D"/><path d="M250.335 184.243a4.563 4.563 0 0 1-5.459-3.442 4.563 4.563 0 0 1 3.453-5.452 4.563 4.563 0 0 1 5.459 3.442 4.563 4.563 0 0 1-3.453 5.452Z" fill="#606060"/><path d="m367.957 154.914-9.203-2.691-1.035 4.522-4.826-.406s-14.883 34.07-27.11 44.899c0 0 20.759-12.974 36.981-34.682 2.561-3.427 4.357-7.377 5.18-11.569l.013-.073ZM378.852 154.705l3.128 12.738 24.243 72.929.881 2.656c4.63 13.926 17.498 23.465 32.195 23.864l4.161.115-15.365-27.162-1.027-1.816-29.095-51.429 2.903-21.28s-3.792-3.507-8.624-5.099l1.018-4.402-14.418-1.114Z" fill="#FFD33D"/><path d="M428.098 239.844c-4.958 2.942-16.344 4.227-20.994 3.184l-.881-2.656c4.732.648 9.595.75 14.131-.134l1.612-.36a25.922 25.922 0 0 0 5.104-1.852l1.028 1.818Z" fill="#F66A0A"/><path d="M270.518 294.854c.035-.002.072-.004.106-.009 3.526-.272 7.056-.419 10.589-.611 3.878-.208 7.704-.737 11.546-1.301 5.768-.844 11.508-1.917 17.124-3.506 2.89-.818 5.708-1.86 8.609-2.642 2.802-.757 5.651-1.315 8.511-1.786 5.435-.891 11.041-1.28 16.314-2.937 5.44-1.709 10.54-4.38 15.522-7.112 5.108-2.803 10.21-5.274 15.967-6.493 2.333-.494 5.178-.979 7.446.019 1.789.789 2.844 2.909 2.091 4.789-.887 2.218-3.748 3.436-5.782 4.284-3.034 1.266-6.218 2.161-9.4 2.978a399.298 399.298 0 0 0-9.966 2.724c-1.565 1.059-3.011 2.333-4.441 3.552-2.833 2.415-5.693 4.578-9.308 5.667-7.988 2.402-16.484.439-24.642.615-.69.016-1.384.036-2.081.06-4.033.647-8.078 1.213-12.112 1.882-6.109 1.011-12.208 2.124-18.362 2.823-5.08.575-15.289.984-15.289.984l-2.658-.546c-1.972-.399-1.793-3.271.216-3.434Z" fill="url('#paint15_linear')"/><path d="M540.303 215.45c7.023-7.489 16.332-21.505 13.735-33.019-.763-8.465-11.426-15.91-22.885-13.128-6.321 1.536-11.662 7.884-7.438 11.058 1.197.899 2.895 1.336 4.456 1.886 14.02 4.957 15.18 21.914 2.078 30.373-5.293 3.418-11.907 5.319-17.775 8.128-15.571 7.458-16.637 25.18-32.743 31.88-7.103 2.954-14.997 4.374-22.213 7.135-13.624 5.215-23.911 14.836-37.531 20.057-6.625 2.54-15.95 5.559-24.892 8.305-2.646.812-1.677 3.609 1.03 2.976.055-.013.108-.025.16-.04 6.609-1.586 13.21-3.275 19.662-5.303 17.068-5.369 33.903-12.097 49.973-19.218 32.203-14.261 52.746-28.013 74.383-51.09Z" fill="url('#paint16_linear')"/><path d="M420.546 296.731c5.961-8.48 17.674-9.996 27.17-11.265 5.043-.675 10.181-1.15 15.11-2.474 6.017-1.618 11.525-4.881 16.57-8.458 1.505-1.067 3.878-2.872 5.472-4.099a26.84 26.84 0 0 0 2.989-2.677c2.258-2.353 6.904-7.065 9.697-9.02 2.11-1.476 7.725-3.324 8.234.743.374 2.989-2.365 6.375-4.283 8.378-3.7 3.867-8.374 6.939-13.066 9.46-4.961 2.665-10.221 4.744-15.552 6.548-2.65.897-5.326 1.722-8.014 2.505-1.963.574-3.999 1.013-5.919 1.725-2.654.985-5.341 2.405-7.933 3.679-3.463 1.699-6.932 3.401-10.481 4.913-3.685 1.57-7.555 3.117-11.546 3.68-2.883.406-6.178.317-8.294-1.971-.394-.429-.503-1.172-.154-1.667Z" fill="url('#paint17_linear')"/><path d="M229.798 329.69c43.051-3.644 56.176-10.759 31.826-16.801-24.351-6.042-34.938 1.655-33.848 6.954 1.088 5.301-10.546 6.743-25.12 7.447-14.571.704-16.234 4.455 27.142 2.4Z" fill="url('#paint18_linear')"/><defs><linearGradient id="paint0_linear" x1="394.503" y1="309.876" x2="352.811" y2="330.329" gradientUnits="userSpaceOnUse"><stop stop-color="#FFE466"/><stop offset="1" stop-color="#FFAFEA"/></linearGradient><linearGradient id="paint1_linear" x1="315.323" y1="372.867" x2="220.585" y2="496.049" gradientUnits="userSpaceOnUse"><stop stop-color="#75C3FC"/><stop offset=".093" stop-color="#81C2F6"/><stop offset="1" stop-color="#F0B8BD"/></linearGradient><linearGradient id="paint2_linear" x1="331.024" y1="142.089" x2="698.443" y2="129.462" gradientUnits="userSpaceOnUse"><stop stop-color="#FFE466"/><stop offset="1" stop-color="#FFAFEA"/></linearGradient><linearGradient id="paint3_linear" x1="321.717" y1="106.985" x2="441.864" y2="86.598" gradientUnits="userSpaceOnUse"><stop stop-color="#FFE466"/><stop offset="1" stop-color="#FFAFEA"/></linearGradient><linearGradient id="paint4_linear" x1="277.037" y1="138.634" x2="121.766" y2="215.793" gradientUnits="userSpaceOnUse"><stop stop-color="#FFE466"/><stop offset="1" stop-color="#FFAFEA"/></linearGradient><linearGradient id="paint5_linear" x1="25.919" y1="231.588" x2="207.477" y2="180.751" gradientUnits="userSpaceOnUse"><stop stop-color="#75C3FC"/><stop offset=".093" stop-color="#81C2F6"/><stop offset="1" stop-color="#F0B8BD"/></linearGradient><linearGradient id="paint6_linear" x1="57.779" y1="284.604" x2="52.599" y2="285.772" gradientUnits="userSpaceOnUse"><stop stop-color="#75C3FC"/><stop offset="1" stop-color="#75C3FC"/></linearGradient><linearGradient id="paint7_linear" x1="473.012" y1="225.63" x2="467.832" y2="226.798" gradientUnits="userSpaceOnUse"><stop stop-color="#75C3FC"/><stop offset="1" stop-color="#75C3FC"/></linearGradient><linearGradient id="paint8_linear" x1="413.002" y1="301.219" x2="407.822" y2="302.387" gradientUnits="userSpaceOnUse"><stop stop-color="#75C3FC"/><stop offset="1" stop-color="#75C3FC"/></linearGradient><linearGradient id="paint9_linear" x1="151.759" y1="333.982" x2="146.579" y2="335.15" gradientUnits="userSpaceOnUse"><stop stop-color="#75C3FC"/><stop offset="1" stop-color="#75C3FC"/></linearGradient><linearGradient id="paint10_linear" x1="162.337" y1="105.516" x2="157.158" y2="106.685" gradientUnits="userSpaceOnUse"><stop stop-color="#75C3FC"/><stop offset="1" stop-color="#75C3FC"/></linearGradient><linearGradient id="paint11_linear" x1="460.539" y1="193.416" x2="455.359" y2="194.584" gradientUnits="userSpaceOnUse"><stop stop-color="#75C3FC"/><stop offset="1" stop-color="#75C3FC"/></linearGradient><linearGradient id="paint12_linear" x1="473.787" y1="301.911" x2="468.607" y2="303.079" gradientUnits="userSpaceOnUse"><stop stop-color="#75C3FC"/><stop offset="1" stop-color="#75C3FC"/></linearGradient><linearGradient id="paint13_linear" x1="460.301" y1="45.61" x2="451.83" y2="47.206" gradientUnits="userSpaceOnUse"><stop stop-color="#75C3FC"/><stop offset="1" stop-color="#75C3FC"/></linearGradient><linearGradient id="paint14_linear" x1="369.408" y1="107.869" x2="603.82" y2="131.528" gradientUnits="userSpaceOnUse"><stop stop-color="#FFE466"/><stop offset="1" stop-color="#FFAFEA"/></linearGradient><linearGradient id="paint15_linear" x1="433.076" y1="248.193" x2="87.243" y2="374.045" gradientUnits="userSpaceOnUse"><stop stop-color="#FFE466"/><stop offset="1" stop-color="#FFAFEA"/></linearGradient><linearGradient id="paint16_linear" x1="559.909" y1="208.28" x2="384.08" y2="247.574" gradientUnits="userSpaceOnUse"><stop stop-color="#75C3FC"/><stop offset=".093" stop-color="#81C2F6"/><stop offset="1" stop-color="#F0B8BD"/></linearGradient><linearGradient id="paint17_linear" x1="507.99" y1="269.152" x2="418.474" y2="289.337" gradientUnits="userSpaceOnUse"><stop stop-color="#75C3FC"/><stop offset=".093" stop-color="#81C2F6"/><stop offset="1" stop-color="#F0B8BD"/></linearGradient><linearGradient id="paint18_linear" x1="272.463" y1="313.217" x2="193.847" y2="330.944" gradientUnits="userSpaceOnUse"><stop stop-color="#FFE466"/><stop offset="1" stop-color="#FFAFEA"/></linearGradient></defs></svg>